<?xml version="1.0" standalone="no"?>
<!DOCTYPE svg PUBLIC "-//W3C//DTD SVG 20010904//EN"
 "http://www.w3.org/TR/2001/REC-SVG-20010904/DTD/svg10.dtd">
<svg version="1.0" xmlns="http://www.w3.org/2000/svg"
 width="1024.000000pt" height="1024.000000pt" viewBox="0 0 1024.000000 1024.000000"
 preserveAspectRatio="xMidYMid meet">

<g transform="translate(0.000000,1024.000000) scale(0.100000,-0.100000)"
fill="#000000" stroke="none">
<path d="M6214 8327 c-272 -123 -640 -429 -851 -707 -151 -200 -240 -371 -290
-558 -25 -90 -27 -112 -27 -307 0 -219 14 -334 62 -507 11 -38 17 -68 13 -68
-8 0 -114 231 -157 342 -47 121 -98 301 -120 423 -24 137 -25 376 -1 465 41
155 134 289 282 406 47 38 91 71 96 73 6 2 1 -16 -11 -39 -46 -91 -185 -539
-231 -745 -38 -171 -36 -187 6 -45 54 186 234 679 277 762 70 132 158 235 308
361 l45 38 -52 -25 c-29 -14 -103 -40 -165 -56 -113 -31 -258 -91 -279 -117
-22 -26 -28 -13 -14 28 18 51 18 182 0 229 l-13 35 -1 -56 c-3 -200 -72 -302
-286 -422 -193 -108 -292 -205 -370 -362 -24 -49 -51 -119 -60 -155 -23 -100
-17 -302 11 -405 3 -11 -16 4 -43 35 -115 130 -218 215 -339 278 -141 73 -265
100 -564 122 -80 7 -251 29 -380 52 -213 36 -257 40 -466 45 -158 4 -279 1
-380 -8 l-149 -13 150 -8 c83 -5 190 -15 240 -23 172 -30 382 -116 524 -216
109 -76 264 -232 359 -359 178 -239 327 -392 481 -494 70 -46 261 -151 426
-233 134 -67 239 -108 570 -223 154 -54 289 -101 300 -105 31 -13 20 -4 -135
99 -312 210 -529 390 -615 510 -81 116 -114 200 -159 416 -25 122 -60 212
-102 267 -38 50 -17 40 63 -30 84 -72 129 -123 278 -307 60 -74 152 -182 205
-240 52 -58 136 -154 185 -215 101 -125 341 -412 362 -435 17 -17 -17 48 -157
300 -220 396 -302 604 -350 883 -41 241 -22 428 57 580 59 113 241 291 403
396 55 35 178 86 187 77 9 -9 -102 -119 -182 -179 -201 -154 -313 -300 -359
-473 -40 -145 -28 -357 33 -597 40 -156 78 -250 199 -486 116 -229 233 -475
266 -564 l22 -58 18 33 18 33 -77 234 c-130 398 -161 568 -152 841 6 179 20
255 77 396 97 243 360 574 599 752 78 59 114 74 79 35 -9 -10 -24 -34 -33 -53
-48 -95 -55 -204 -29 -447 10 -95 14 -193 11 -273 -7 -199 -46 -282 -188 -404
-111 -94 -127 -145 -88 -271 11 -37 19 -69 17 -71 -9 -8 -91 101 -114 151 -19
42 -26 74 -27 126 -1 69 0 73 78 225 l80 154 0 98 c0 67 -6 113 -19 150 -10
29 -20 51 -22 49 -3 -2 1 -17 7 -33 6 -16 11 -65 11 -109 0 -100 -23 -167 -97
-290 -81 -135 -89 -157 -89 -260 0 -110 22 -166 93 -240 67 -69 81 -94 81
-138 0 -47 -25 -97 -85 -166 -76 -89 -81 -121 -37 -276 25 -87 30 -96 36 -70
4 15 4 67 1 114 -4 50 -3 97 3 111 5 14 40 59 76 100 122 138 144 224 86 335
-72 138 -61 194 59 285 86 65 142 143 172 239 32 103 34 210 9 416 -36 291
-20 416 71 560 49 78 166 191 267 256 109 71 109 72 6 26z m-1421 -579 c-73
-77 -141 -218 -163 -338 -13 -69 -16 -275 -4 -313 12 -42 -14 -4 -60 86 -25
49 -53 122 -62 164 -15 69 -15 77 1 119 29 77 98 158 202 238 104 80 137 97
86 44z m-1963 -390 c153 -48 444 -156 551 -203 182 -81 299 -172 388 -303 23
-35 85 -144 137 -243 99 -191 168 -298 240 -376 24 -25 43 -48 41 -49 -4 -4
-271 154 -327 193 -129 90 -266 232 -423 438 -194 255 -407 426 -665 531 -57
23 -107 45 -110 49 -12 12 69 -6 168 -37z m201 -7 c173 -36 273 -51 444 -66
200 -18 254 -28 357 -65 93 -34 152 -73 212 -142 72 -82 102 -150 140 -314 72
-312 122 -398 330 -568 82 -67 262 -204 406 -309 l25 -18 -25 7 c-62 16 -368
141 -489 200 -126 61 -139 71 -231 162 -115 115 -156 176 -285 422 -110 211
-160 286 -239 358 -109 99 -220 153 -556 272 -113 39 -207 74 -209 76 -9 8 29
4 120 -15z m1429 -1 c0 -31 28 -96 91 -210 45 -80 77 -161 137 -345 44 -132
94 -273 111 -313 18 -41 30 -76 28 -78 -6 -6 -117 145 -180 244 -144 224 -233
503 -213 665 7 53 26 81 26 37z m-15 -365 c11 -33 50 -123 88 -199 37 -77 66
-144 64 -150 -5 -14 -79 87 -111 151 -14 28 -34 85 -45 125 -39 149 -36 199 4
73z"/>
<path d="M7485 7329 c-533 -501 -1176 -1076 -1336 -1194 -46 -34 -92 -54 -200
-90 -157 -51 -236 -87 -326 -151 -73 -52 -171 -158 -207 -224 l-25 -47 55 -10
55 -10 39 68 c43 73 112 147 172 185 21 13 39 24 42 24 2 0 -5 -28 -16 -62
-27 -85 -27 -181 0 -241 12 -26 25 -47 30 -47 4 0 46 41 93 92 241 263 1108
1166 1513 1576 148 149 268 272 265 272 -2 0 -72 -63 -154 -141z"/>
<path d="M4942 6920 c0 -14 2 -19 5 -12 2 6 2 18 0 25 -3 6 -5 1 -5 -13z"/>
<path d="M3384 5875 c-502 -65 -1131 -254 -1451 -436 -85 -49 -200 -151 -253
-225 l-34 -49 39 33 c249 207 337 230 914 239 384 6 483 -1 670 -48 158 -39
230 -68 426 -169 317 -164 510 -237 780 -295 274 -59 327 -48 480 94 145 135
265 179 450 167 128 -8 295 -44 295 -64 0 -8 -35 -49 -78 -92 -57 -56 -148
-123 -344 -253 -147 -98 -270 -182 -273 -187 -13 -21 -31 -8 -49 36 -10 25
-20 44 -21 42 -9 -8 96 -570 109 -585 0 -1 1 85 1 190 0 186 1 194 26 247 52
112 182 213 415 325 156 75 250 132 294 180 67 72 119 81 341 61 268 -25 671
-56 709 -55 39 1 -718 131 -1050 180 -274 40 -517 50 -606 24 -80 -23 -133
-55 -216 -132 -119 -109 -160 -120 -363 -104 -267 21 -421 87 -671 286 -112
90 -136 102 -321 165 -330 113 -507 142 -868 141 -121 -1 -242 -4 -270 -7 -66
-8 -50 7 35 35 150 48 456 112 760 158 165 25 212 28 435 28 199 0 269 -4 345
-18 109 -21 396 -92 550 -137 125 -36 526 -114 875 -169 408 -65 484 -85 575
-152 121 -87 134 -91 645 -178 807 -138 1540 -254 1558 -248 7 2 -6 7 -28 11
-72 13 -689 155 -1290 296 -809 190 -889 208 -1300 290 -453 90 -791 166
-1021 230 -503 142 -610 160 -902 159 -120 -1 -263 -7 -318 -14z m-321 -329
c212 -33 471 -102 648 -173 62 -25 111 -53 170 -102 46 -37 106 -82 132 -101
85 -60 34 -44 -120 39 -188 102 -293 147 -469 204 -232 75 -295 82 -699 82
-192 0 -393 -3 -445 -8 -82 -6 -93 -5 -77 7 35 27 154 56 267 65 155 13 472 5
593 -13z"/>
<path d="M3710 5609 c-72 -12 -250 -70 -250 -81 0 -14 32 -9 130 23 215 69
385 49 770 -87 l135 -48 485 -7 c267 -4 519 -4 560 1 l75 9 -76 -4 c-41 -2
-134 3 -205 11 -71 9 -286 19 -479 24 -377 9 -403 13 -570 76 -137 51 -293 85
-410 89 -60 2 -135 0 -165 -6z"/>
<path d="M6878 5023 c6 -2 18 -2 25 0 6 3 1 5 -13 5 -14 0 -19 -2 -12 -5z"/>
<path d="M8268 4893 c6 -2 18 -2 25 0 6 3 1 5 -13 5 -14 0 -19 -2 -12 -5z"/>
<path d="M2865 3893 c-4 -10 -7 -256 -6 -548 l2 -530 47 0 47 0 3 408 c1 224
6 407 11 407 5 0 64 -64 132 -142 225 -262 569 -646 600 -672 17 -14 35 -26
40 -26 5 0 9 211 9 525 l0 525 -52 0 -53 0 0 -351 c0 -360 -2 -430 -14 -428
-3 0 -82 86 -176 192 -93 105 -225 252 -291 326 -67 75 -157 179 -199 231 -42
52 -81 96 -85 98 -4 2 -11 -5 -15 -15z"/>
<path d="M7105 3834 c-36 -53 -183 -290 -210 -339 -49 -89 -155 -242 -193
-278 -22 -22 -45 -57 -53 -80 -17 -54 -72 -143 -98 -156 -31 -17 -58 -62 -64
-111 l-7 -45 31 35 c33 37 137 194 147 220 3 8 19 31 36 51 76 89 89 105 99
127 15 33 27 27 27 -15 0 -42 -13 -69 -27 -60 -6 4 -22 -19 -36 -51 -15 -31
-38 -72 -52 -91 -14 -19 -31 -52 -37 -74 -7 -23 -32 -60 -57 -86 l-44 -46 69
-12 c38 -6 114 -12 170 -12 l101 -1 6 54 c3 29 16 78 30 107 31 67 44 194 26
262 -11 45 -29 64 -29 32 0 -8 -4 -15 -10 -15 -5 0 -10 4 -10 9 0 5 -12 23
-26 40 -14 17 -23 35 -20 40 4 5 1 11 -6 13 -8 3 2 27 28 69 23 35 78 129 124
209 45 80 85 147 87 150 7 8 22 -22 38 -75 16 -50 16 -50 -10 -73 l-26 -22 20
-26 21 -27 0 37 c0 73 32 29 106 -144 29 -68 37 -99 38 -155 2 -92 39 -176 88
-201 47 -23 68 -44 68 -67 0 -22 62 -126 93 -155 19 -18 119 -62 140 -62 4 0
-32 46 -81 103 -98 114 -130 173 -198 366 -33 95 -51 133 -78 160 -27 28 -50
77 -107 226 -39 105 -75 194 -80 199 -4 5 -19 -9 -34 -30z m-268 -740 c-2 -2
-14 7 -27 21 -15 16 -20 30 -15 42 5 15 10 12 27 -20 10 -22 18 -41 15 -43z"/>
<path d="M7960 3336 l0 -526 50 0 50 0 0 411 c0 226 4 409 9 407 9 -3 96 -97
301 -324 260 -287 481 -524 491 -524 6 0 8 205 7 533 l-3 532 -47 3 -48 3 0
-400 c0 -344 -2 -401 -15 -401 -7 0 -18 6 -22 14 -4 7 -128 146 -274 307 -146
162 -304 337 -351 389 -69 77 -90 96 -116 98 l-32 3 0 -525z"/>
<path d="M1895 3814 c-36 -53 -183 -290 -210 -339 -49 -89 -155 -242 -193
-278 -22 -22 -45 -57 -53 -80 -17 -54 -72 -143 -98 -156 -31 -17 -58 -62 -64
-111 l-7 -45 31 35 c33 37 137 194 147 220 3 8 19 31 36 51 76 89 89 105 99
127 15 33 27 27 27 -15 0 -42 -13 -69 -27 -60 -6 4 -22 -19 -36 -51 -15 -31
-38 -72 -52 -91 -14 -19 -31 -52 -37 -74 -7 -23 -32 -60 -57 -86 l-44 -46 69
-12 c38 -6 114 -12 170 -12 l101 -1 6 54 c3 29 16 78 30 107 31 67 44 194 26
262 -11 45 -29 64 -29 32 0 -8 -4 -15 -10 -15 -5 0 -10 4 -10 9 0 5 -12 23
-26 40 -14 17 -23 35 -20 40 4 5 1 11 -6 13 -8 3 2 27 28 69 23 35 78 129 124
209 45 80 85 147 87 150 7 8 22 -22 38 -75 16 -50 16 -50 -10 -73 l-26 -22 20
-26 21 -27 0 37 c0 73 32 29 106 -144 29 -68 37 -99 38 -155 2 -92 39 -176 88
-201 47 -23 68 -44 68 -67 0 -22 62 -126 93 -155 19 -18 119 -62 140 -62 4 0
-32 46 -81 103 -98 114 -130 173 -198 366 -33 95 -51 133 -78 160 -27 28 -50
77 -107 226 -39 105 -75 194 -80 199 -4 5 -19 -9 -34 -30z m-268 -740 c-2 -2
-14 7 -27 21 -15 16 -20 30 -15 42 5 15 10 12 27 -20 10 -22 18 -41 15 -43z"/>
<path d="M4260 3331 l0 -521 166 0 c91 0 198 5 237 11 299 44 457 218 457 503
-1 209 -103 383 -272 460 -107 49 -151 56 -380 63 l-208 6 0 -522z m439 405
c160 -45 251 -133 296 -291 13 -45 16 -83 13 -162 -4 -93 -8 -110 -39 -171
-27 -53 -47 -77 -97 -114 -34 -26 -86 -54 -115 -63 -75 -23 -199 -36 -302 -33
l-90 3 -3 429 -2 429 142 -6 c79 -3 167 -12 197 -21z"/>
<path d="M5587 3793 c-2 -32 -4 -265 -3 -518 l2 -460 327 -3 327 -2 0 45 0 45
-264 0 c-145 0 -271 3 -280 6 -14 5 -16 32 -16 195 l0 189 257 2 257 3 -1 23
c-3 68 24 61 -255 64 l-253 3 -3 183 c-1 100 1 182 5 182 5 0 91 1 193 2 102
1 224 3 273 6 l87 4 0 44 0 44 -324 0 -324 0 -5 -57z"/>
<path d="M7042 3421 c-9 -27 -9 -52 -2 -87 6 -27 13 -65 16 -84 4 -19 17 -46
29 -60 33 -37 45 -64 45 -107 1 -50 33 -119 59 -128 12 -4 34 -25 49 -48 27
-42 27 -42 30 -14 2 15 7 27 11 27 4 0 25 -18 46 -41 22 -22 53 -47 69 -56
l29 -15 -23 39 c-13 21 -29 45 -35 53 -7 8 -21 31 -30 50 -10 19 -31 50 -46
68 -42 47 -86 141 -92 192 -9 72 -41 123 -85 135 -43 12 -53 42 -27 82 10 14
12 22 6 18 -7 -4 -18 -2 -25 4 -10 8 -15 2 -24 -28z"/>
<path d="M1832 3401 c-9 -27 -9 -52 -2 -87 6 -27 13 -65 16 -84 4 -19 17 -46
29 -60 33 -37 45 -64 45 -107 1 -50 33 -119 59 -128 12 -4 34 -25 49 -48 27
-42 27 -42 30 -14 2 15 7 27 11 27 4 0 25 -18 46 -41 22 -22 53 -47 69 -56
l29 -15 -23 39 c-13 21 -29 45 -35 53 -7 8 -21 31 -30 50 -10 19 -31 50 -46
68 -42 47 -86 141 -92 192 -9 72 -41 123 -85 135 -43 12 -53 42 -27 82 10 14
12 22 6 18 -7 -4 -18 -2 -25 4 -10 8 -15 2 -24 -28z"/>
<path d="M4369 2442 c-45 -23 -59 -37 -84 -86 -26 -51 -29 -68 -29 -145 0 -75
4 -95 28 -144 38 -78 94 -112 186 -112 81 0 110 8 150 41 59 50 75 96 75 214
0 113 -15 158 -67 207 -61 58 -176 69 -259 25z m191 -45 c59 -39 75 -79 75
-187 0 -108 -16 -148 -76 -188 -28 -20 -44 -23 -92 -20 -46 4 -63 10 -88 34
-46 43 -59 82 -59 177 0 101 25 159 80 188 49 26 119 25 160 -4z"/>
<path d="M3100 2210 l0 -250 30 0 30 0 0 120 0 120 116 0 115 0 -3 28 -3 27
-112 3 -113 3 0 74 0 75 120 0 120 0 0 25 0 25 -150 0 -150 0 0 -250z"/>
<path d="M3700 2210 l0 -250 140 0 140 0 0 25 c0 24 0 24 -112 27 l-113 3 -3
223 -2 222 -25 0 -25 0 0 -250z"/>
<path d="M4974 2443 c3 -10 23 -90 46 -178 23 -88 47 -180 55 -205 7 -25 16
-57 19 -72 5 -24 11 -28 40 -28 l33 0 47 189 c25 104 46 197 46 205 0 9 6 16
13 16 7 0 30 -74 62 -203 l50 -202 35 -3 36 -3 59 233 c32 128 61 241 63 251
4 15 0 18 -24 15 -28 -3 -28 -4 -76 -197 -26 -106 -50 -201 -53 -210 -10 -22
-20 7 -55 154 -66 279 -58 257 -93 253 l-31 -3 -49 -200 c-27 -110 -51 -202
-53 -204 -2 -2 -6 -2 -9 1 -5 4 -105 392 -105 405 0 1 -14 3 -31 3 -24 0 -29
-4 -25 -17z"/>
<path d="M5890 2210 l0 -250 155 0 155 0 0 25 0 24 -127 3 -128 3 0 95 0 95
118 3 c117 3 117 3 117 27 0 24 0 24 -117 27 l-118 3 0 70 0 70 128 3 127 3 0
24 0 25 -155 0 -155 0 0 -250z"/>
<path d="M6510 2211 l0 -251 30 0 30 0 0 105 0 105 40 0 c38 0 42 -4 121 -101
44 -55 87 -103 94 -105 7 -3 26 -4 41 -2 27 3 26 5 -59 105 -48 57 -87 106
-87 110 0 5 13 14 30 21 42 19 70 70 70 126 0 96 -47 127 -202 134 l-108 5 0
-252z m209 184 c32 -16 41 -33 41 -76 0 -73 -48 -109 -147 -109 l-43 0 0 100
0 100 60 0 c34 0 74 -7 89 -15z"/>
<path d="M2500 1568 c-30 -16 -60 -72 -60 -111 0 -92 88 -148 153 -96 52 40
57 149 9 192 -26 23 -72 30 -102 15z m74 -31 c12 -9 20 -31 24 -65 6 -66 -15
-102 -58 -102 -38 0 -60 32 -60 90 0 76 45 113 94 77z"/>
<path d="M3394 1573 c-12 -2 -34 -18 -50 -34 -24 -25 -29 -39 -29 -78 0 -28 7
-58 17 -74 22 -32 83 -52 133 -43 l36 7 -3 52 -3 52 -37 3 c-29 2 -38 0 -38
-12 0 -9 9 -16 20 -16 16 0 20 -7 20 -30 0 -27 -3 -30 -30 -30 -73 0 -108 103
-54 157 22 22 32 25 70 20 31 -3 44 -1 44 8 0 11 -50 28 -69 24 -3 -1 -16 -4
-27 -6z"/>
<path d="M4675 1571 c-57 -24 -81 -108 -51 -173 41 -86 151 -72 176 23 13 46
0 107 -28 132 -23 21 -70 29 -97 18z m69 -37 c21 -21 30 -58 23 -100 -8 -47
-23 -64 -58 -64 -37 0 -59 33 -59 90 0 25 7 56 16 68 18 26 56 29 78 6z"/>
<path d="M5772 1569 c-72 -21 -96 -139 -40 -195 26 -27 82 -40 122 -30 24 6
26 11 26 61 l0 55 -35 0 c-24 0 -35 -5 -35 -15 0 -8 9 -15 20 -15 16 0 20 -7
20 -30 0 -27 -3 -30 -30 -30 -73 0 -110 108 -55 160 20 19 32 22 70 18 53 -6
65 16 14 26 -36 7 -34 7 -77 -5z"/>
<path d="M6200 1562 c-42 -21 -60 -53 -60 -109 0 -76 64 -124 146 -109 51 10
44 32 -9 28 -35 -3 -50 1 -73 21 -38 33 -40 93 -4 132 22 24 30 26 73 21 35
-4 47 -2 47 8 0 8 -14 16 -31 20 -45 9 -50 8 -89 -12z"/>
<path d="M6405 1566 c-37 -16 -55 -52 -55 -109 0 -80 47 -125 116 -112 91 17
100 193 12 224 -37 13 -36 13 -73 -3z m77 -33 c13 -12 18 -31 18 -74 0 -66
-16 -89 -61 -89 -25 0 -33 6 -45 37 -37 88 27 181 88 126z"/>
<path d="M2260 1460 c0 -91 3 -110 15 -110 11 0 15 12 15 45 l0 45 55 0 c42 0
55 3 55 15 0 12 -13 15 -55 15 l-55 0 0 40 0 40 65 0 c37 0 65 4 65 10 0 6
-33 10 -80 10 l-80 0 0 -110z"/>
<path d="M2690 1460 l0 -110 75 0 c43 0 75 4 75 10 0 6 -27 10 -60 10 l-60 0
0 100 c0 82 -3 100 -15 100 -12 0 -15 -19 -15 -110z"/>
<path d="M2890 1561 c0 -6 15 -11 33 -13 l32 -3 3 -87 3 -88 -36 0 c-19 0 -35
-4 -35 -10 0 -6 33 -10 80 -10 47 0 80 4 80 10 0 6 -13 10 -30 10 l-30 0 0 90
0 90 30 0 c17 0 30 5 30 10 0 6 -33 10 -80 10 -44 0 -80 -4 -80 -9z"/>
<path d="M3131 1465 c-23 -58 -41 -108 -41 -110 0 -3 6 -5 14 -5 8 0 17 11 20
25 6 23 11 25 61 25 50 0 56 -3 65 -25 5 -14 17 -25 26 -25 11 0 14 5 10 18
-4 9 -23 59 -43 110 -49 124 -59 123 -112 -13z m62 -33 c-19 -2 -37 -1 -40 2
-3 3 3 26 13 52 l18 48 22 -50 21 -49 -34 -3z"/>
<path d="M3550 1460 l0 -110 80 0 c47 0 80 4 80 10 0 6 -27 10 -60 10 l-60 0
0 40 0 40 50 0 c38 0 50 4 50 15 0 11 -12 15 -50 15 l-50 0 0 35 0 35 60 0
c33 0 60 4 60 10 0 6 -33 10 -80 10 l-80 0 0 -110z"/>
<path d="M3990 1460 l0 -110 80 0 c47 0 80 4 80 10 0 6 -28 10 -65 10 l-65 0
0 40 0 40 50 0 c38 0 50 4 50 15 0 11 -12 15 -50 15 l-50 0 0 35 0 35 60 0
c33 0 60 4 60 10 0 6 -32 10 -75 10 l-75 0 0 -110z"/>
<path d="M4186 1558 c4 -7 20 -29 36 -49 15 -20 28 -41 28 -47 0 -5 -16 -30
-35 -55 -39 -51 -41 -57 -22 -57 7 0 26 18 43 40 16 22 32 40 36 40 4 0 19
-18 35 -40 15 -22 36 -40 46 -40 23 0 22 3 -18 59 -19 26 -35 52 -35 57 0 5
16 29 36 54 47 59 24 68 -26 10 l-36 -42 -27 41 c-17 26 -35 41 -48 41 -13 0
-18 -4 -13 -12z"/>
<path d="M4420 1460 c0 -103 1 -110 20 -110 17 0 20 7 20 39 0 38 1 38 42 44
54 7 93 47 83 86 -9 39 -32 51 -102 51 l-63 0 0 -110z m104 80 c18 -7 26 -17
26 -34 0 -28 -25 -46 -64 -46 -24 0 -26 3 -26 45 0 49 11 55 64 35z"/>
<path d="M4850 1460 c0 -91 3 -110 15 -110 11 0 15 12 15 45 0 37 3 45 18 45
11 0 33 -20 51 -45 20 -28 40 -45 52 -45 23 0 20 6 -22 60 l-27 36 24 21 c13
12 24 33 24 47 0 36 -35 56 -97 56 l-53 0 0 -110z m84 80 c47 -17 27 -70 -26
-70 -25 0 -28 3 -28 33 0 49 9 55 54 37z"/>
<path d="M5040 1560 c0 -5 18 -10 40 -10 l40 0 0 -100 c0 -93 1 -100 20 -100
19 0 20 7 20 100 l0 100 45 0 c25 0 45 5 45 10 0 6 -42 10 -105 10 -63 0 -105
-4 -105 -10z"/>
<path d="M5280 1560 c0 -5 14 -10 30 -10 l30 0 0 -90 0 -90 -30 0 c-16 0 -30
-4 -30 -10 0 -6 33 -10 80 -10 47 0 80 4 80 10 0 6 -13 10 -30 10 l-30 0 0 90
0 90 30 0 c17 0 30 5 30 10 0 6 -33 10 -80 10 -47 0 -80 -4 -80 -10z"/>
<path d="M5490 1460 c0 -91 3 -110 15 -110 12 0 15 15 15 76 0 41 4 73 9 70 5
-3 28 -37 51 -76 28 -47 48 -70 61 -70 17 0 19 9 19 110 0 90 -3 110 -15 110
-11 0 -15 -18 -17 -77 l-3 -78 -48 78 c-33 53 -54 77 -68 77 -18 0 -19 -8 -19
-110z"/>
<path d="M6570 1461 c0 -132 18 -151 22 -23 l3 87 25 -65 c15 -36 32 -65 40
-65 7 0 23 28 36 65 l22 65 1 -87 c1 -71 4 -88 16 -88 12 0 15 19 15 111 0
108 0 110 -22 107 -17 -2 -26 -16 -42 -65 -11 -35 -23 -63 -26 -63 -3 0 -15
28 -26 63 -16 49 -25 63 -42 65 -22 3 -22 1 -22 -107z"/>
<path d="M6810 1460 c0 -91 3 -110 15 -110 11 0 15 11 15 39 0 37 1 39 40 44
62 8 90 31 90 72 0 47 -29 65 -102 65 l-58 0 0 -110z m95 80 c14 -5 28 -17 31
-25 10 -25 -25 -55 -63 -55 -32 0 -33 2 -33 38 0 54 12 62 65 42z"/>
<path d="M7076 1562 c-2 -4 -14 -30 -24 -58 -11 -27 -29 -73 -41 -101 -17 -45
-18 -53 -6 -53 9 0 20 11 25 25 9 22 15 25 64 25 49 0 54 -2 60 -25 4 -16 13
-25 25 -25 18 0 16 9 -20 101 -22 56 -42 106 -45 110 -7 11 -31 12 -38 1z m48
-110 c7 -20 4 -22 -33 -22 -45 0 -44 -8 -10 78 l11 27 13 -31 c7 -17 16 -40
19 -52z"/>
<path d="M7230 1460 c0 -91 3 -110 15 -110 12 0 15 15 15 78 l0 77 50 -77 c70
-109 80 -105 80 32 0 67 -4 110 -10 110 -6 0 -10 -32 -10 -75 0 -41 -3 -75 -7
-75 -5 0 -28 34 -53 75 -29 48 -51 75 -62 75 -16 0 -18 -12 -18 -110z"/>
<path d="M7451 1533 c12 -21 31 -50 41 -65 11 -16 18 -44 18 -72 0 -39 3 -46
20 -46 17 0 20 7 20 48 0 33 7 58 23 82 60 89 61 90 43 90 -8 0 -31 -23 -50
-52 l-35 -51 -32 51 c-21 34 -39 52 -51 52 -19 0 -19 -2 3 -37z"/>
</g>
</svg>
