<?xml version="1.0" standalone="no"?>
<!DOCTYPE svg PUBLIC "-//W3C//DTD SVG 20010904//EN"
 "http://www.w3.org/TR/2001/REC-SVG-20010904/DTD/svg10.dtd">
<svg version="1.0" xmlns="http://www.w3.org/2000/svg"
 width="1024.000000pt" height="1024.000000pt" viewBox="0 0 1024.000000 1024.000000"
 preserveAspectRatio="xMidYMid meet">

<g transform="translate(0.000000,1024.000000) scale(0.100000,-0.100000)"
fill="#000000" stroke="none">
<path d="M6214 8327 c-272 -123 -640 -429 -851 -707 -151 -200 -240 -371 -290
-558 -25 -90 -27 -112 -27 -307 0 -219 14 -334 62 -507 11 -38 17 -68 13 -68
-8 0 -114 231 -157 342 -47 121 -98 301 -120 423 -24 137 -25 376 -1 465 41
155 134 289 282 406 47 38 91 71 96 73 6 2 1 -16 -11 -39 -46 -91 -185 -539
-231 -745 -38 -171 -36 -187 6 -45 54 186 234 679 277 762 70 132 158 235 308
361 l45 38 -52 -25 c-29 -14 -103 -40 -165 -56 -113 -31 -258 -91 -279 -117
-22 -26 -28 -13 -14 28 18 51 18 182 0 229 l-13 35 -1 -56 c-3 -200 -72 -302
-286 -422 -193 -108 -292 -205 -370 -362 -24 -49 -51 -119 -60 -155 -23 -100
-17 -302 11 -405 3 -11 -16 4 -43 35 -115 130 -218 215 -339 278 -141 73 -265
100 -564 122 -80 7 -251 29 -380 52 -213 36 -257 40 -466 45 -158 4 -279 1
-380 -8 l-149 -13 150 -8 c83 -5 190 -15 240 -23 172 -30 382 -116 524 -216
109 -76 264 -232 359 -359 178 -239 327 -392 481 -494 70 -46 261 -151 426
-233 134 -67 239 -108 570 -223 154 -54 289 -101 300 -105 31 -13 20 -4 -135
99 -312 210 -529 390 -615 510 -81 116 -114 200 -159 416 -25 122 -60 212
-102 267 -38 50 -17 40 63 -30 84 -72 129 -123 278 -307 60 -74 152 -182 205
-240 52 -58 136 -154 185 -215 101 -125 341 -412 362 -435 17 -17 -17 48 -157
300 -220 396 -302 604 -350 883 -41 241 -22 428 57 580 59 113 241 291 403
396 55 35 178 86 187 77 9 -9 -102 -119 -182 -179 -201 -154 -313 -300 -359
-473 -40 -145 -28 -357 33 -597 40 -156 78 -250 199 -486 116 -229 233 -475
266 -564 l22 -58 18 33 18 33 -77 234 c-130 398 -161 568 -152 841 6 179 20
255 77 396 97 243 360 574 599 752 78 59 114 74 79 35 -9 -10 -24 -34 -33 -53
-48 -95 -55 -204 -29 -447 10 -95 14 -193 11 -273 -7 -199 -46 -282 -188 -404
-111 -94 -127 -145 -88 -271 11 -37 19 -69 17 -71 -9 -8 -91 101 -114 151 -19
42 -26 74 -27 126 -1 69 0 73 78 225 l80 154 0 98 c0 67 -6 113 -19 150 -10
29 -20 51 -22 49 -3 -2 1 -17 7 -33 6 -16 11 -65 11 -109 0 -100 -23 -167 -97
-290 -81 -135 -89 -157 -89 -260 0 -110 22 -166 93 -240 67 -69 81 -94 81
-138 0 -47 -25 -97 -85 -166 -76 -89 -81 -121 -37 -276 25 -87 30 -96 36 -70
4 15 4 67 1 114 -4 50 -3 97 3 111 5 14 40 59 76 100 122 138 144 224 86 335
-72 138 -61 194 59 285 86 65 142 143 172 239 32 103 34 210 9 416 -36 291
-20 416 71 560 49 78 166 191 267 256 109 71 109 72 6 26z m-1421 -579 c-73
-77 -141 -218 -163 -338 -13 -69 -16 -275 -4 -313 12 -42 -14 -4 -60 86 -25
49 -53 122 -62 164 -15 69 -15 77 1 119 29 77 98 158 202 238 104 80 137 97
86 44z m-1963 -390 c153 -48 444 -156 551 -203 182 -81 299 -172 388 -303 23
-35 85 -144 137 -243 99 -191 168 -298 240 -376 24 -25 43 -48 41 -49 -4 -4
-271 154 -327 193 -129 90 -266 232 -423 438 -194 255 -407 426 -665 531 -57
23 -107 45 -110 49 -12 12 69 -6 168 -37z m201 -7 c173 -36 273 -51 444 -66
200 -18 254 -28 357 -65 93 -34 152 -73 212 -142 72 -82 102 -150 140 -314 72
-312 122 -398 330 -568 82 -67 262 -204 406 -309 l25 -18 -25 7 c-62 16 -368
141 -489 200 -126 61 -139 71 -231 162 -115 115 -156 176 -285 422 -110 211
-160 286 -239 358 -109 99 -220 153 -556 272 -113 39 -207 74 -209 76 -9 8 29
4 120 -15z m1429 -1 c0 -31 28 -96 91 -210 45 -80 77 -161 137 -345 44 -132
94 -273 111 -313 18 -41 30 -76 28 -78 -6 -6 -117 145 -180 244 -144 224 -233
503 -213 665 7 53 26 81 26 37z m-15 -365 c11 -33 50 -123 88 -199 37 -77 66
-144 64 -150 -5 -14 -79 87 -111 151 -14 28 -34 85 -45 125 -39 149 -36 199 4
73z"/>
<path d="M7485 7329 c-533 -501 -1176 -1076 -1336 -1194 -46 -34 -92 -54 -200
-90 -157 -51 -236 -87 -326 -151 -73 -52 -171 -158 -207 -224 l-25 -47 55 -10
55 -10 39 68 c43 73 112 147 172 185 21 13 39 24 42 24 2 0 -5 -28 -16 -62
-27 -85 -27 -181 0 -241 12 -26 25 -47 30 -47 4 0 46 41 93 92 241 263 1108
1166 1513 1576 148 149 268 272 265 272 -2 0 -72 -63 -154 -141z"/>
<path d="M4942 6920 c0 -14 2 -19 5 -12 2 6 2 18 0 25 -3 6 -5 1 -5 -13z"/>
<path d="M3384 5875 c-502 -65 -1131 -254 -1451 -436 -85 -49 -200 -151 -253
-225 l-34 -49 39 33 c249 207 337 230 914 239 384 6 483 -1 670 -48 158 -39
230 -68 426 -169 317 -164 510 -237 780 -295 274 -59 327 -48 480 94 145 135
265 179 450 167 128 -8 295 -44 295 -64 0 -8 -35 -49 -78 -92 -57 -56 -148
-123 -344 -253 -147 -98 -270 -182 -273 -187 -13 -21 -31 -8 -49 36 -10 25
-20 44 -21 42 -9 -8 96 -570 109 -585 0 -1 1 85 1 190 0 186 1 194 26 247 52
112 182 213 415 325 156 75 250 132 294 180 67 72 119 81 341 61 268 -25 671
-56 709 -55 39 1 -718 131 -1050 180 -274 40 -517 50 -606 24 -80 -23 -133
-55 -216 -132 -119 -109 -160 -120 -363 -104 -267 21 -421 87 -671 286 -112
90 -136 102 -321 165 -330 113 -507 142 -868 141 -121 -1 -242 -4 -270 -7 -66
-8 -50 7 35 35 150 48 456 112 760 158 165 25 212 28 435 28 199 0 269 -4 345
-18 109 -21 396 -92 550 -137 125 -36 526 -114 875 -169 408 -65 484 -85 575
-152 121 -87 134 -91 645 -178 807 -138 1540 -254 1558 -248 7 2 -6 7 -28 11
-72 13 -689 155 -1290 296 -809 190 -889 208 -1300 290 -453 90 -791 166
-1021 230 -503 142 -610 160 -902 159 -120 -1 -263 -7 -318 -14z m-321 -329
c212 -33 471 -102 648 -173 62 -25 111 -53 170 -102 46 -37 106 -82 132 -101
85 -60 34 -44 -120 39 -188 102 -293 147 -469 204 -232 75 -295 82 -699 82
-192 0 -393 -3 -445 -8 -82 -6 -93 -5 -77 7 35 27 154 56 267 65 155 13 472 5
593 -13z"/>
<path d="M3710 5609 c-72 -12 -250 -70 -250 -81 0 -14 32 -9 130 23 215 69
385 49 770 -87 l135 -48 485 -7 c267 -4 519 -4 560 1 l75 9 -76 -4 c-41 -2
-134 3 -205 11 -71 9 -286 19 -479 24 -377 9 -403 13 -570 76 -137 51 -293 85
-410 89 -60 2 -135 0 -165 -6z"/>
<path d="M6878 5023 c6 -2 18 -2 25 0 6 3 1 5 -13 5 -14 0 -19 -2 -12 -5z"/>
<path d="M8268 4893 c6 -2 18 -2 25 0 6 3 1 5 -13 5 -14 0 -19 -2 -12 -5z"/>
<path d="M2865 3893 c-4 -10 -7 -256 -6 -548 l2 -530 47 0 47 0 3 408 c1 224
6 407 11 407 5 0 64 -64 132 -142 225 -262 569 -646 600 -672 17 -14 35 -26
40 -26 5 0 9 211 9 525 l0 525 -52 0 -53 0 0 -351 c0 -360 -2 -430 -14 -428
-3 0 -82 86 -176 192 -93 105 -225 252 -291 326 -67 75 -157 179 -199 231 -42
52 -81 96 -85 98 -4 2 -11 -5 -15 -15z"/>
<path d="M7960 3336 l0 -526 50 0 50 0 0 411 c0 226 4 409 9 407 9 -3 96 -97
301 -324 260 -287 481 -524 491 -524 6 0 8 205 7 533 l-3 532 -47 3 -48 3 0
-400 c0 -344 -2 -401 -15 -401 -7 0 -18 6 -22 14 -4 7 -128 146 -274 307 -146
162 -304 337 -351 389 -69 77 -90 96 -116 98 l-32 3 0 -525z"/>
<path d="M1824 3753 c-26 -54 -91 -190 -144 -303 -54 -113 -143 -299 -199
-414 -55 -115 -101 -213 -101 -218 0 -5 26 -8 57 -6 l56 3 85 180 c165 353
279 601 298 647 10 27 24 48 30 48 11 0 214 -451 214 -476 0 -11 -17 -14 -78
-14 -96 0 -98 -2 -176 -157 l-56 -113 68 0 69 0 41 90 42 90 70 0 c81 0 70 13
151 -175 37 -85 53 -111 71 -116 35 -10 98 -10 98 0 0 4 -105 237 -233 517
l-234 509 -41 3 -41 3 -47 -98z"/>
<path d="M4260 3331 l0 -521 166 0 c91 0 198 5 237 11 299 44 457 218 457 503
-1 209 -103 383 -272 460 -107 49 -151 56 -380 63 l-208 6 0 -522z m439 405
c160 -45 251 -133 296 -291 13 -45 16 -83 13 -162 -4 -93 -8 -110 -39 -171
-27 -53 -47 -77 -97 -114 -34 -26 -86 -54 -115 -63 -75 -23 -199 -36 -302 -33
l-90 3 -3 429 -2 429 142 -6 c79 -3 167 -12 197 -21z"/>
<path d="M5587 3793 c-2 -32 -4 -265 -3 -518 l2 -460 327 -3 327 -2 0 45 0 45
-264 0 c-145 0 -271 3 -280 6 -14 5 -16 32 -16 195 l0 189 257 2 257 3 -1 23
c-3 68 24 61 -255 64 l-253 3 -3 183 c-1 100 1 182 5 182 5 0 91 1 193 2 102
1 224 3 273 6 l87 4 0 44 0 44 -324 0 -324 0 -5 -57z"/>
<path d="M6959 3703 c-39 -81 -101 -209 -136 -283 -137 -285 -283 -599 -280
-600 30 -9 107 -7 114 3 5 6 31 62 58 122 26 61 106 234 177 385 71 151 139
297 150 323 11 26 26 46 32 44 15 -5 228 -485 221 -497 -3 -6 -44 -10 -91 -10
l-84 0 -20 -32 c-11 -18 -43 -77 -71 -131 l-50 -98 72 3 72 3 30 70 c42 100
48 105 127 105 l66 0 69 -150 68 -150 60 0 c43 0 58 3 54 13 -15 37 -312 680
-388 837 l-88 185 -46 3 -45 3 -71 -148z"/>
<path d="M4369 2442 c-45 -23 -59 -37 -84 -86 -26 -51 -29 -68 -29 -145 0 -75
4 -95 28 -144 38 -78 94 -112 186 -112 81 0 110 8 150 41 59 50 75 96 75 214
0 113 -15 158 -67 207 -61 58 -176 69 -259 25z m191 -45 c59 -39 75 -79 75
-187 0 -108 -16 -148 -76 -188 -28 -20 -44 -23 -92 -20 -46 4 -63 10 -88 34
-46 43 -59 82 -59 177 0 101 25 159 80 188 49 26 119 25 160 -4z"/>
<path d="M3100 2210 l0 -250 30 0 30 0 0 120 0 120 116 0 115 0 -3 28 -3 27
-112 3 -113 3 0 74 0 75 120 0 120 0 0 25 0 25 -150 0 -150 0 0 -250z"/>
<path d="M3700 2210 l0 -250 140 0 140 0 0 25 c0 24 0 24 -112 27 l-113 3 -3
223 -2 222 -25 0 -25 0 0 -250z"/>
<path d="M4974 2443 c3 -10 23 -90 46 -178 23 -88 47 -180 55 -205 7 -25 16
-57 19 -72 5 -24 11 -28 40 -28 l33 0 47 189 c25 104 46 197 46 205 0 9 6 16
13 16 7 0 30 -74 62 -203 l50 -202 35 -3 36 -3 59 233 c32 128 61 241 63 251
4 15 0 18 -24 15 -28 -3 -28 -4 -76 -197 -26 -106 -50 -201 -53 -210 -10 -22
-20 7 -55 154 -66 279 -58 257 -93 253 l-31 -3 -49 -200 c-27 -110 -51 -202
-53 -204 -2 -2 -6 -2 -9 1 -5 4 -105 392 -105 405 0 1 -14 3 -31 3 -24 0 -29
-4 -25 -17z"/>
<path d="M5890 2210 l0 -250 155 0 155 0 0 25 0 24 -127 3 -128 3 0 95 0 95
118 3 c117 3 117 3 117 27 0 24 0 24 -117 27 l-118 3 0 70 0 70 128 3 127 3 0
24 0 25 -155 0 -155 0 0 -250z"/>
<path d="M6510 2211 l0 -251 30 0 30 0 0 105 0 105 40 0 c38 0 42 -4 121 -101
44 -55 87 -103 94 -105 7 -3 26 -4 41 -2 27 3 26 5 -59 105 -48 57 -87 106
-87 110 0 5 13 14 30 21 42 19 70 70 70 126 0 96 -47 127 -202 134 l-108 5 0
-252z m209 184 c32 -16 41 -33 41 -76 0 -73 -48 -109 -147 -109 l-43 0 0 100
0 100 60 0 c34 0 74 -7 89 -15z"/>
<path d="M2300 1440 c0 -91 3 -110 15 -110 11 0 15 12 15 45 l0 45 55 0 c42 0
55 3 55 15 0 12 -13 15 -55 15 l-55 0 0 40 0 40 65 0 c37 0 65 4 65 10 0 6
-33 10 -80 10 l-80 0 0 -110z"/>
<path d="M2516 1531 c-36 -40 -43 -132 -13 -172 35 -46 97 -51 138 -10 26 26
29 36 29 91 0 51 -4 65 -25 85 -31 32 -103 35 -129 6z m105 -17 c7 -8 14 -39
17 -69 4 -47 1 -57 -21 -79 -32 -32 -42 -32 -72 -1 -20 19 -25 34 -25 72 0 28
7 58 16 71 18 26 65 30 85 6z"/>
<path d="M2730 1440 l0 -110 75 0 c43 0 75 4 75 10 0 6 -27 10 -60 10 l-60 0
0 100 c0 82 -3 100 -15 100 -12 0 -15 -19 -15 -110z"/>
<path d="M2940 1540 c0 -5 14 -10 30 -10 l30 0 0 -90 0 -90 -30 0 c-16 0 -30
-4 -30 -10 0 -6 32 -10 75 -10 43 0 75 4 75 10 0 6 -13 10 -30 10 l-30 0 0 90
0 90 30 0 c17 0 30 5 30 10 0 6 -32 10 -75 10 -43 0 -75 -4 -75 -10z"/>
<path d="M3177 1458 c-20 -51 -39 -101 -43 -110 -4 -12 -1 -18 9 -18 8 0 18
11 21 25 6 23 11 25 61 25 50 0 56 -3 65 -25 5 -14 17 -25 26 -25 11 0 14 5
10 18 -52 140 -81 202 -96 202 -12 0 -27 -27 -53 -92z m74 -3 l17 -45 -39 0
c-21 0 -39 3 -39 7 0 17 33 93 39 88 3 -3 13 -26 22 -50z"/>
<path d="M3397 1530 c-37 -29 -51 -79 -37 -129 15 -58 70 -89 136 -76 33 6 34
7 34 55 l0 50 -35 0 c-19 0 -35 -4 -35 -10 0 -5 9 -10 20 -10 16 0 20 -7 20
-30 0 -27 -3 -30 -30 -30 -74 0 -109 102 -54 157 22 22 32 25 70 20 33 -3 44
-1 44 9 0 23 -102 18 -133 -6z"/>
<path d="M3600 1440 l0 -110 75 0 c43 0 75 4 75 10 0 6 -27 10 -60 10 l-60 0
0 40 0 40 50 0 c28 0 50 5 50 10 0 6 -22 10 -50 10 l-50 0 0 40 0 40 55 0 c30
0 55 5 55 10 0 6 -30 10 -70 10 l-70 0 0 -110z"/>
<path d="M4030 1440 l0 -110 80 0 c47 0 80 4 80 10 0 6 -28 10 -65 10 l-65 0
0 40 0 40 50 0 c64 0 66 18 3 22 -48 3 -48 3 -51 41 l-3 37 60 0 c34 0 61 4
61 10 0 6 -32 10 -75 10 l-75 0 0 -110z"/>
<path d="M4254 1500 c20 -28 36 -55 36 -61 0 -6 -16 -30 -35 -53 -38 -47 -42
-56 -21 -56 7 0 26 18 41 40 15 22 31 40 36 40 4 0 20 -18 36 -40 15 -22 36
-40 46 -40 24 0 22 4 -22 62 l-39 52 39 50 c47 63 30 76 -21 16 l-36 -42 -27
41 c-17 26 -35 41 -48 41 -19 0 -18 -4 15 -50z"/>
<path d="M4470 1440 c0 -91 3 -110 15 -110 11 0 15 11 15 39 0 38 1 39 42 45
57 9 78 30 78 77 0 48 -18 59 -94 59 l-56 0 0 -110z m101 80 c21 -12 26 -52 7
-67 -7 -6 -28 -13 -45 -16 l-33 -6 0 49 c0 47 2 50 26 50 14 0 34 -5 45 -10z"/>
<path d="M4687 1532 c-38 -42 -45 -132 -14 -173 35 -46 97 -51 138 -10 26 26
29 36 29 91 0 51 -4 65 -25 85 -30 31 -103 35 -128 7z m104 -18 c7 -8 14 -39
17 -69 4 -47 1 -57 -21 -79 -32 -32 -42 -32 -72 -1 -20 19 -25 34 -25 72 0 28
7 58 16 71 18 26 65 30 85 6z"/>
<path d="M4890 1440 c0 -91 3 -110 15 -110 11 0 15 12 15 45 0 37 3 45 18 45
11 0 33 -20 51 -45 20 -28 40 -45 52 -45 23 0 20 6 -22 60 l-27 36 24 21 c13
12 24 33 24 47 0 36 -35 56 -97 56 l-53 0 0 -110z m91 80 c27 -15 24 -46 -6
-66 -37 -24 -55 -12 -55 36 0 34 3 40 21 40 11 0 29 -5 40 -10z"/>
<path d="M5080 1541 c0 -6 19 -11 43 -13 l42 -3 3 -97 c2 -78 6 -98 17 -98 12
0 15 19 15 100 l0 100 40 0 c22 0 40 5 40 10 0 6 -40 10 -100 10 -56 0 -100
-4 -100 -9z"/>
<path d="M5320 1540 c0 -5 14 -10 30 -10 l30 0 0 -90 0 -90 -30 0 c-16 0 -30
-4 -30 -10 0 -6 32 -10 75 -10 72 0 105 15 48 22 l-28 3 0 85 0 85 28 3 c57 7
24 22 -48 22 -43 0 -75 -4 -75 -10z"/>
<path d="M5540 1440 c0 -126 18 -152 22 -32 l3 77 50 -77 c72 -113 85 -108 85
32 0 91 -3 110 -15 110 -12 0 -15 -16 -15 -82 l0 -83 -51 83 c-70 113 -79 109
-79 -28z"/>
<path d="M5784 1535 c-47 -32 -57 -133 -19 -175 24 -27 80 -43 121 -36 33 7
34 8 34 56 l0 50 -35 0 c-19 0 -35 -4 -35 -10 0 -5 9 -10 20 -10 16 0 20 -7
20 -30 0 -27 -3 -30 -29 -30 -17 0 -42 10 -58 24 -37 32 -39 93 -3 131 22 24
31 26 73 22 35 -3 47 -1 47 9 0 20 -109 19 -136 -1z"/>
<path d="M6227 1539 c-26 -15 -47 -63 -47 -109 0 -71 67 -120 145 -106 53 10
45 32 -10 28 -39 -4 -49 0 -75 26 -38 39 -40 79 -3 122 25 30 30 32 75 27 38
-5 48 -3 48 8 0 12 -14 15 -57 15 -32 0 -66 -5 -76 -11z"/>
<path d="M6432 1543 c-21 -8 -42 -60 -42 -105 0 -60 30 -105 73 -113 74 -14
124 44 114 131 -7 63 -38 94 -91 93 -23 0 -47 -3 -54 -6z m90 -30 c23 -27 31
-78 18 -119 -31 -92 -130 -43 -117 58 9 69 63 101 99 61z"/>
<path d="M6610 1441 c0 -67 4 -111 10 -111 6 0 10 36 10 87 0 95 8 98 35 16
24 -74 46 -72 70 7 10 33 22 60 27 60 4 0 8 -38 8 -85 0 -50 4 -85 10 -85 6 0
10 44 10 111 0 108 0 110 -22 107 -17 -2 -26 -16 -42 -65 -11 -35 -23 -63 -26
-63 -3 0 -15 28 -26 63 -16 49 -25 63 -42 65 -22 3 -22 1 -22 -107z"/>
<path d="M6850 1440 c0 -91 3 -110 15 -110 11 0 15 11 15 40 0 35 3 40 24 40
37 0 86 20 96 40 32 61 -4 100 -92 100 l-58 0 0 -110z m108 74 c12 -8 22 -21
22 -28 0 -20 -32 -44 -65 -48 -29 -3 -30 -2 -33 45 -3 46 -2 47 25 47 16 0 39
-7 51 -16z"/>
<path d="M7117 1543 c-3 -5 -15 -31 -25 -59 -11 -27 -29 -73 -41 -101 -16 -40
-17 -53 -7 -53 7 0 18 11 24 25 10 22 18 25 66 25 49 0 54 -2 60 -25 4 -16 13
-25 25 -25 17 0 15 10 -23 107 -39 100 -63 132 -79 106z m47 -111 c7 -20 4
-22 -33 -22 l-40 0 14 41 c8 22 17 45 21 51 6 10 22 -19 38 -70z"/>
<path d="M7270 1440 c0 -90 3 -110 15 -110 11 0 15 18 17 77 l3 77 46 -75 c25
-41 53 -75 62 -77 15 -3 17 9 17 107 0 67 -4 111 -10 111 -6 0 -10 -32 -10
-75 0 -41 -3 -75 -7 -75 -5 0 -28 34 -53 75 -28 46 -52 75 -62 75 -16 0 -18
-12 -18 -110z"/>
<path d="M7476 1538 c4 -7 23 -36 41 -65 25 -39 33 -63 33 -98 0 -33 4 -45 15
-45 11 0 15 11 15 41 0 30 10 54 38 97 54 81 55 82 39 82 -8 0 -30 -23 -50
-51 l-36 -52 -32 52 c-20 32 -39 51 -51 51 -13 0 -17 -4 -12 -12z"/>
</g>
</svg>
