<?xml version="1.0" standalone="no"?>
<!DOCTYPE svg PUBLIC "-//W3C//DTD SVG 20010904//EN"
 "http://www.w3.org/TR/2001/REC-SVG-20010904/DTD/svg10.dtd">
<svg version="1.0" xmlns="http://www.w3.org/2000/svg"
 width="1024.000000pt" height="1024.000000pt" viewBox="0 0 1024.000000 1024.000000"
 preserveAspectRatio="xMidYMid meet">

<g transform="translate(0.000000,1024.000000) scale(0.100000,-0.100000)"
fill="#000000" stroke="none">
<path d="M6220 7926 c-181 -80 -404 -243 -618 -451 -303 -294 -487 -603 -537
-905 -31 -184 -13 -470 45 -696 11 -42 18 -79 17 -81 -5 -5 -104 206 -144 307
-104 262 -164 575 -149 770 20 246 109 396 342 578 23 17 45 32 48 32 3 0 -4
-24 -15 -52 -78 -195 -189 -566 -233 -781 -26 -122 -33 -186 -15 -117 49 181
82 284 167 521 54 151 108 296 120 322 57 128 181 282 327 406 l50 43 -51 -26
c-28 -13 -88 -34 -132 -46 -83 -21 -219 -66 -237 -79 -5 -4 -32 -20 -58 -35
-42 -24 -47 -25 -38 -8 32 59 30 217 -3 280 -12 24 -13 22 -9 -25 7 -68 -13
-175 -42 -234 -36 -70 -109 -137 -211 -193 -228 -127 -326 -221 -409 -399 -19
-39 -42 -99 -50 -132 -20 -75 -21 -245 -2 -342 8 -40 11 -73 8 -73 -3 1 -24
23 -46 51 -91 113 -266 246 -393 298 -133 54 -227 72 -487 91 -82 7 -256 30
-385 52 -217 37 -254 40 -478 45 -154 4 -293 1 -381 -7 -215 -19 -223 -26 -31
-28 274 -3 413 -34 625 -136 202 -98 369 -240 527 -450 248 -330 379 -449 653
-598 317 -172 431 -222 787 -344 123 -42 252 -87 287 -100 35 -13 68 -24 74
-24 5 0 -39 32 -99 71 -242 156 -503 357 -597 459 -130 140 -182 254 -232 510
-21 104 -45 171 -85 234 -17 27 -29 50 -26 53 11 12 221 -208 349 -366 78 -96
176 -211 217 -255 42 -45 127 -144 190 -221 145 -178 317 -384 343 -410 20
-21 -32 80 -141 275 -219 388 -312 622 -362 913 -54 320 -4 535 166 716 93 99
238 218 324 265 66 36 150 69 157 62 9 -9 -98 -113 -190 -184 -317 -245 -417
-479 -362 -847 38 -256 86 -397 232 -685 127 -250 270 -554 288 -613 l11 -39
18 40 18 39 -65 199 c-84 254 -102 318 -126 434 -50 249 -53 514 -7 693 80
312 380 713 692 928 l49 33 -20 -29 c-77 -118 -91 -230 -60 -500 19 -167 19
-323 0 -403 -27 -113 -60 -166 -167 -265 -66 -60 -101 -101 -109 -125 -14 -41
-6 -123 17 -177 8 -20 13 -39 10 -42 -8 -8 -74 70 -103 122 -25 45 -28 60 -28
145 l0 95 59 102 c68 120 96 202 96 281 0 64 -20 157 -39 187 -13 20 -13 20
-5 0 4 -11 9 -61 12 -110 4 -78 1 -100 -21 -162 -14 -40 -52 -116 -85 -170
-63 -101 -81 -155 -82 -233 0 -63 26 -159 53 -191 12 -15 46 -55 76 -90 51
-60 53 -64 49 -111 -5 -49 -27 -87 -114 -196 -29 -37 -34 -51 -34 -96 0 -29
11 -90 25 -137 14 -46 23 -90 20 -99 -3 -9 2 -7 11 5 13 17 15 37 9 122 -7
118 -3 131 75 216 129 141 150 229 85 357 -41 81 -46 147 -17 192 10 15 49 52
88 82 76 59 99 86 138 164 57 112 69 244 41 453 -24 181 -29 306 -15 387 30
179 171 357 385 486 74 45 63 46 -35 2z m-1438 -601 c-116 -132 -183 -379
-154 -572 5 -35 6 -63 2 -63 -9 0 -97 188 -109 235 -28 106 -4 178 93 283 57
61 196 174 205 166 2 -2 -15 -24 -37 -49z m-1742 -437 c377 -135 505 -198 623
-308 88 -82 128 -142 240 -354 102 -196 175 -310 250 -393 37 -41 44 -53 24
-40 -16 10 -83 50 -150 89 -67 39 -153 95 -192 123 -102 77 -254 238 -387 411
-125 162 -241 277 -378 375 -92 66 -250 148 -335 175 -30 10 -55 21 -55 25 0
15 143 -26 360 -103z m71 47 c97 -18 252 -41 345 -49 212 -20 232 -23 322 -47
143 -38 233 -98 311 -210 52 -74 70 -123 120 -334 39 -166 96 -287 177 -375
67 -72 241 -214 432 -352 72 -51 129 -94 128 -95 -4 -5 -330 124 -443 175
-268 120 -375 232 -560 583 -120 230 -168 302 -254 383 -110 104 -241 169
-570 281 -262 89 -262 90 -8 40z m1445 -191 c50 -94 84 -180 144 -361 43 -131
92 -269 109 -307 17 -38 30 -71 27 -73 -6 -7 -181 245 -230 332 -100 178 -160
373 -160 521 0 112 12 137 31 64 7 -29 43 -108 79 -176z m-87 -199 c19 -49 58
-138 87 -197 30 -60 50 -108 45 -108 -21 0 -111 153 -135 228 -26 82 -48 189
-37 175 4 -4 22 -48 40 -98z"/>
<path d="M7514 6949 c-514 -486 -1265 -1156 -1381 -1234 -21 -13 -99 -44 -173
-69 -74 -24 -153 -52 -175 -61 -71 -31 -189 -113 -247 -172 -53 -55 -138 -168
-138 -184 0 -4 19 -10 43 -14 23 -3 49 -8 57 -11 11 -3 24 13 42 49 31 63 113
156 176 199 45 31 45 31 38 7 -23 -80 -37 -169 -31 -204 7 -47 40 -125 53
-125 5 0 60 55 122 123 254 274 1148 1204 1514 1575 143 144 257 262 255 262
-3 0 -73 -63 -155 -141z"/>
<path d="M4942 6460 c0 -14 2 -19 5 -12 2 6 2 18 0 25 -3 6 -5 1 -5 -13z"/>
<path d="M3550 5490 c-455 -31 -1137 -213 -1523 -406 -154 -78 -245 -150 -335
-269 -51 -66 -55 -68 74 38 86 70 149 103 249 131 135 38 247 48 610 53 364 5
484 -4 669 -52 142 -37 239 -77 441 -181 300 -154 466 -217 745 -279 131 -29
180 -36 240 -33 97 5 130 22 243 125 188 171 335 204 642 141 55 -11 102 -22
104 -23 2 -2 -6 -19 -18 -38 -43 -70 -154 -158 -409 -323 -67 -43 -159 -105
-205 -136 -45 -32 -84 -58 -87 -58 -4 0 -11 15 -18 33 -6 18 -19 42 -27 52
-14 19 -14 18 -5 -10 5 -16 23 -111 40 -210 16 -99 41 -238 55 -310 13 -71 25
-143 25 -159 l0 -29 -28 39 c-67 91 -172 158 -290 183 -29 6 -133 11 -231 11
l-177 0 2 -362 c1 -200 2 -420 3 -490 l1 -128 183 0 c258 0 342 26 458 141
129 126 162 271 119 514 -43 239 -52 328 -48 470 3 129 5 144 31 197 54 111
161 195 402 315 187 94 250 133 324 199 62 56 114 66 262 53 360 -32 872 -70
849 -63 -32 9 -915 154 -1115 183 -402 58 -537 60 -666 11 -67 -25 -88 -39
-178 -120 -85 -76 -104 -87 -170 -100 -69 -13 -289 4 -393 30 -149 38 -301
123 -488 275 -87 71 -133 92 -350 163 -293 96 -482 126 -805 125 -115 0 -237
-3 -270 -7 -59 -6 -60 -6 -31 10 44 25 391 108 594 143 298 50 490 71 666 71
239 0 388 -26 795 -136 234 -64 588 -135 961 -194 431 -68 471 -79 608 -169
48 -32 101 -63 117 -69 63 -25 2099 -362 2111 -349 3 2 -24 10 -58 16 -67 13
-952 217 -1753 405 -269 63 -654 146 -855 186 -460 90 -781 163 -1075 245
-415 116 -544 141 -765 148 -74 3 -187 2 -250 -3z m-492 -346 c143 -19 311
-58 482 -111 228 -71 272 -95 495 -278 17 -14 -71 26 -195 89 -241 121 -429
191 -608 227 -161 32 -446 43 -725 30 -133 -7 -258 -15 -277 -18 -47 -7 -29 8
40 35 72 28 98 32 270 42 173 9 377 3 518 -16z m1632 -1464 c176 -28 291 -145
321 -328 28 -170 -52 -342 -192 -412 -69 -35 -152 -50 -281 -50 l-98 0 0 393
c0 217 3 397 7 400 10 11 170 8 243 -3z"/>
<path d="M3713 5209 c-72 -12 -243 -68 -243 -79 0 -17 41 -11 139 22 86 29
108 32 216 32 145 1 241 -18 420 -81 266 -93 238 -90 785 -96 267 -3 512 -2
545 2 53 7 46 8 -55 9 -63 1 -180 8 -260 16 -87 9 -241 16 -385 16 -307 0
-369 8 -579 77 -267 86 -424 108 -583 82z"/>
<path d="M8328 4483 c7 -3 16 -2 19 1 4 3 -2 6 -13 5 -11 0 -14 -3 -6 -6z"/>
<path d="M1940 3812 c0 -4 -28 -57 -61 -117 -34 -61 -90 -162 -124 -225 -34
-63 -73 -135 -87 -160 -115 -208 -158 -288 -158 -295 0 -5 -6 -16 -13 -24 -8
-9 -33 -51 -56 -93 l-42 -78 51 0 c27 0 50 4 50 10 0 5 17 39 38 75 20 36 44
78 52 93 8 15 25 41 36 57 12 17 29 47 37 68 9 20 21 37 28 37 6 0 20 11 30
25 11 13 26 22 34 19 9 -4 20 13 36 56 12 33 26 63 31 66 4 3 22 -1 38 -10 36
-18 37 -14 5 28 -14 18 -25 38 -25 44 0 23 -17 11 -33 -23 -9 -19 -23 -35 -32
-35 -17 0 -20 16 -5 25 6 3 10 16 11 28 0 31 114 242 130 242 18 0 267 -581
254 -593 -3 -4 -17 7 -31 23 -25 29 -34 27 -47 -10 -2 -6 -14 -5 -29 4 -23 12
-31 11 -66 -4 -22 -10 -45 -29 -51 -42 -7 -15 -19 -23 -35 -23 -16 0 -32 -10
-43 -26 -10 -14 -30 -39 -45 -55 -15 -16 -35 -43 -43 -59 l-16 -30 312 0 c276
0 310 2 305 15 -3 9 -98 231 -211 495 -113 263 -205 483 -205 489 0 6 -4 11
-10 11 -5 0 -10 -3 -10 -8z"/>
<path d="M2860 3298 l0 -498 55 0 55 0 2 351 3 351 241 -264 c133 -144 278
-305 323 -356 l81 -92 0 495 0 495 -50 0 -50 0 0 -351 c0 -193 -4 -349 -8
-347 -12 4 -281 296 -446 482 -78 88 -156 176 -173 195 l-32 36 -1 -497z"/>
<path d="M7110 3613 c-46 -98 -150 -320 -232 -493 l-148 -315 46 -3 c26 -2 52
-1 58 1 6 3 33 55 60 116 l49 111 242 0 c182 0 245 -3 252 -12 5 -7 29 -59 53
-115 l43 -103 58 0 57 0 -145 323 c-79 177 -179 400 -221 494 -42 95 -79 173
-82 173 -3 0 -43 -80 -90 -177z m189 -281 c50 -112 91 -206 91 -208 0 -2 -88
-4 -195 -4 -114 0 -195 4 -195 9 0 9 158 360 182 404 5 11 14 15 18 11 4 -5
49 -101 99 -212z"/>
<path d="M8220 3297 l0 -497 55 0 55 0 0 345 c0 190 3 345 8 344 4 0 32 -29
62 -63 64 -73 475 -529 537 -596 l43 -45 0 498 0 497 -55 0 -55 0 0 -352 -1
-353 -75 80 c-127 134 -334 363 -448 495 -60 69 -113 129 -117 135 -5 5 -9
-209 -9 -488z"/>
<path d="M5750 3290 l0 -490 220 0 220 0 0 45 0 45 -165 0 -165 0 0 180 0 180
170 0 170 0 0 50 0 50 -170 0 -170 0 0 170 0 170 168 0 167 0 0 45 0 45 -222
0 -223 0 0 -490z"/>
<path d="M1911 3299 c-11 -19 -10 -25 13 -48 23 -23 26 -23 26 -7 0 14 16 2
56 -42 31 -35 66 -67 78 -73 11 -5 -2 12 -31 39 -28 27 -66 73 -83 101 -18 28
-35 51 -38 51 -4 0 -13 -10 -21 -21z"/>
<path d="M1829 3218 c-6 -13 -26 -39 -43 -59 -68 -81 -180 -259 -161 -259 2 0
17 23 31 52 27 53 112 158 128 158 4 0 6 -9 3 -20 -9 -35 11 -22 23 15 11 32
20 40 44 36 5 -1 13 4 17 11 6 9 13 8 28 -6 35 -31 24 -4 -18 47 -39 47 -40
48 -52 25z"/>
<path d="M4457 2428 c-50 -13 -131 -88 -152 -140 -9 -23 -19 -72 -22 -108 -17
-200 130 -339 315 -299 72 15 130 61 166 132 26 50 29 68 30 145 0 67 -5 98
-21 133 -53 118 -180 173 -316 137z m169 -57 c51 -23 80 -59 99 -124 43 -144
-14 -285 -129 -317 -135 -37 -244 51 -254 207 -12 184 132 303 284 234z"/>
<path d="M3030 2155 l0 -275 25 0 25 0 0 125 0 125 100 0 100 0 0 25 0 25
-100 0 -100 0 0 100 0 100 110 0 110 0 0 25 0 25 -135 0 -135 0 0 -275z"/>
<path d="M3680 2155 l0 -275 135 0 135 0 0 25 0 25 -110 0 -110 0 0 250 0 250
-25 0 -25 0 0 -275z"/>
<path d="M5130 2423 c-1 -5 34 -128 77 -275 l78 -268 32 0 c36 0 25 -27 113
280 44 152 59 191 60 155 0 -11 27 -112 59 -225 l58 -205 34 -3 34 -3 74 263
c41 145 76 269 79 276 3 8 -6 12 -26 12 -35 0 -26 23 -108 -282 -26 -98 -50
-178 -53 -178 -3 0 -28 82 -55 183 -82 299 -74 279 -104 275 -25 -3 -29 -13
-89 -218 -35 -118 -63 -220 -63 -227 0 -6 -3 -14 -8 -17 -4 -2 -37 101 -72
230 -64 234 -65 234 -92 234 -16 0 -28 -3 -28 -7z"/>
<path d="M6190 2155 l0 -275 140 0 140 0 0 25 0 25 -115 0 -115 0 0 105 0 105
100 0 c93 0 100 1 100 20 0 19 -7 20 -100 20 l-100 0 0 100 0 100 110 0 110 0
0 25 0 25 -135 0 -135 0 0 -275z"/>
<path d="M6860 2156 l0 -276 25 0 25 0 0 121 0 121 55 -4 c31 -3 63 -12 73
-21 10 -9 45 -61 77 -116 57 -95 62 -100 94 -101 32 0 33 1 19 23 -8 12 -39
60 -67 107 -29 47 -64 95 -78 106 l-25 21 38 19 c49 25 75 62 81 115 5 52 -18
102 -60 133 -24 18 -46 21 -143 25 l-114 3 0 -276z m217 204 c38 -23 50 -58
37 -109 -14 -54 -61 -81 -140 -81 l-64 0 0 105 0 105 68 0 c49 0 76 -5 99 -20z"/>
</g>
</svg>
